<svg id="Groupe_11" data-name="Groupe 11" xmlns="http://www.w3.org/2000/svg" width="27.907" height="50" viewBox="0 0 27.907 50">
  <path id="Tracé_7" data-name="Tracé 7" d="M36.462,959.361a5.79,5.79,0,0,0-5.812,5.814v25.309A10.1,10.1,0,0,0,26,998.895a10.462,10.462,0,1,0,20.924,0,10.1,10.1,0,0,0-4.65-8.412V965.174a5.79,5.79,0,0,0-5.812-5.814Zm0,1.163a4.591,4.591,0,0,1,4.65,4.651v25.581a.593.593,0,0,0,.272.491,8.945,8.945,0,0,1,4.377,7.649,9.3,9.3,0,1,1-18.6,0,8.945,8.945,0,0,1,4.377-7.649.593.593,0,0,0,.272-.491V965.175a4.591,4.591,0,0,1,4.65-4.651Zm10.353,7.558a.584.584,0,0,0,.109,1.163h6.393a.581.581,0,1,0,0-1.163h-6.5Zm0,4.651a.584.584,0,0,0,.109,1.163H49.83a.581.581,0,1,0,0-1.163H46.815Zm0,5.233a.584.584,0,0,0,.109,1.163h6.393a.581.581,0,1,0,0-1.163h-6.5Zm0,4.651a.584.584,0,0,0,.109,1.163H49.83a.581.581,0,1,0,0-1.163H46.815Zm-10.426.563a.6.6,0,0,0-.509.6v9.3c0,.012,0,.024,0,.036a5.812,5.812,0,1,0,1.162,0c0-.012,0-.024,0-.036v-9.3a.607.607,0,0,0-.654-.6Zm10.426,4.088a.584.584,0,0,0,.109,1.163h6.393a.581.581,0,1,0,0-1.163h-6.5Zm-10.353,6.977a4.651,4.651,0,1,1-4.65,4.651A4.64,4.64,0,0,1,36.462,994.245Z" transform="translate(-26 -959.36)" fill="#193b6a"/>
</svg>
