<svg xmlns="http://www.w3.org/2000/svg" width="32.118" height="50" viewBox="0 0 32.118 50">
  <g id="Humidity" transform="translate(0)">
    <path id="Tracé_19" data-name="Tracé 19" d="M29.192,23.437C24.9,13.37,17.344,1.187,16.9.474a.987.987,0,0,0-1.686,0c-.442.714-8,12.9-12.29,22.963A37.146,37.146,0,0,0,.1,32.354a.447.447,0,0,0-.015.115,9.307,9.307,0,0,0-.08,1.2A16.174,16.174,0,0,0,14.4,49.913,16.078,16.078,0,0,0,31.782,36.994a1.288,1.288,0,0,0,.025-.135,16.307,16.307,0,0,0,.311-3.193C32.118,31.187,30.919,27.484,29.192,23.437Zm-24.083,0A206.274,206.274,0,0,1,16.059,2.99a206.274,206.274,0,0,1,10.95,20.448c1.817,4.1,3.1,7.854,3.1,10.229a14.187,14.187,0,0,1-.2,2.37,11.3,11.3,0,0,1-13.153-2.208A13.23,13.23,0,0,0,2.444,30.739a47.17,47.17,0,0,1,2.665-7.3Z" fill="#193b6a"/>
  </g>
</svg>
